<?xml version="1.0" encoding="UTF-8"?>
<svg version="1.1" xmlns="http://www.w3.org/2000/svg" width="1024" height="1024">
<path d="M0 0 C337.92 0 675.84 0 1024 0 C1024 337.92 1024 675.84 1024 1024 C686.08 1024 348.16 1024 0 1024 C0 686.08 0 348.16 0 0 Z " fill="#080808" transform="translate(0,0)"/>
<path d="M0 0 C155.76 0 311.52 0 472 0 C472 27.06 472 54.12 472 82 C377.62 82 283.24 82 186 82 C186 224.89 186 367.78 186 515 C158.94 515 131.88 515 104 515 C104 372.11 104 229.22 104 82 C69.68 82 35.36 82 0 82 C0 54.94 0 27.88 0 0 Z " fill="#FEFEFE" transform="translate(114,212)"/>
<path d="M0 0 C2.15458509 -0.00216783 4.3086411 -0.02031889 6.46313477 -0.03930664 C19.05020313 -0.09168102 31.36421494 1.06254053 43.55883789 4.37280273 C44.35249756 4.58710938 45.14615723 4.80141602 45.96386719 5.0222168 C64.07961281 10.13461363 79.59264089 19.07174625 93.12133789 32.18530273 C93.73235352 32.7228418 94.34336914 33.26038086 94.97290039 33.81420898 C114.89852366 51.96563292 120.9933688 80.64967367 123.12133789 106.18530273 C123.12133789 115.09530273 123.12133789 124.00530273 123.12133789 133.18530273 C99.36133789 133.18530273 75.60133789 133.18530273 51.12133789 133.18530273 C50.13133789 122.79030273 50.13133789 122.79030273 49.12133789 112.18530273 C46.77472942 99.46421471 41.86218787 86.16366791 31.12133789 78.18530273 C18.42947187 70.42251046 3.92032122 69.17193296 -10.56616211 71.87280273 C-25.88758411 76.66074711 -36.40755817 86.36557615 -43.95581055 100.36401367 C-59.55548332 131.15066947 -58.39615087 168.92051688 -58.20123291 202.58013916 C-58.18777367 205.72772629 -58.19307999 208.87517262 -58.198102 212.02277565 C-59.57802828 274.24535622 -59.57802828 274.24535622 -32.87866211 328.18530273 C-26.69548317 334.09058599 -19.88876053 337.35300274 -11.87866211 340.18530273 C-11.21350586 340.43280273 -10.54834961 340.68030273 -9.86303711 340.93530273 C0.92325548 344.31188128 13.01761518 342.86645196 23.12133789 338.18530273 C36.27181486 331.22933839 42.88552347 319.64846088 47.37133789 305.81030273 C49.5979273 296.10873458 50.22016322 286.09822406 51.12133789 276.18530273 C74.88133789 276.18530273 98.64133789 276.18530273 123.12133789 276.18530273 C123.12133789 303.12568735 123.12133789 303.12568735 121.99633789 310.81030273 C121.86364502 311.74648438 121.73095215 312.68266602 121.59423828 313.6472168 C117.06085577 343.20735481 103.86090892 369.84503465 80.02758789 388.62280273 C51.2755528 409.27960464 15.06560928 414.79983057 -19.5090332 409.58764648 C-33.02460652 407.29281186 -45.64823331 403.36654921 -57.87866211 397.18530273 C-58.48403809 396.88253418 -59.08941406 396.57976562 -59.71313477 396.26782227 C-69.2079748 391.42947513 -77.04924939 385.34905688 -84.87866211 378.18530273 C-85.98661133 377.18370117 -85.98661133 377.18370117 -87.11694336 376.16186523 C-114.75623844 349.90730438 -124.94775672 311.69021043 -129.87866211 275.18530273 C-129.99193848 274.35514648 -130.10521484 273.52499023 -130.22192383 272.66967773 C-133.24345907 249.91030961 -133.12228515 226.91534068 -133.12866211 203.99780273 C-133.12910397 203.26792271 -133.12954582 202.53804268 -133.13000107 201.78604507 C-133.1369648 179.80320073 -132.97990387 157.99297085 -129.87866211 136.18530273 C-129.61327637 134.29835693 -129.61327637 134.29835693 -129.3425293 132.37329102 C-123.52172154 92.51734566 -111.92824221 50.91493146 -78.92553711 24.85327148 C-55.7236457 8.0804756 -28.44197292 -0.00318892 0 0 Z " fill="#FEFEFE" transform="translate(687.878662109375,321.814697265625)"/>
<path d="M0 0 C63.69 0 127.38 0 193 0 C193 24.75 193 49.5 193 75 C153.73 75 114.46 75 74 75 C74 104.7 74 134.4 74 165 C108.98 165 143.96 165 180 165 C180 188.76 180 212.52 180 237 C145.02 237 110.04 237 74 237 C74 290.79 74 344.58 74 400 C49.58 400 25.16 400 0 400 C0 268 0 136 0 0 Z " fill="#FDFDFD" transform="translate(344,327)"/>
<path d="M0 0 C24.09 0 48.18 0 73 0 C73 132 73 264 73 400 C48.91 400 24.82 400 0 400 C0 268 0 136 0 0 Z " fill="#FEFEFE" transform="translate(839,327)"/>
<path d="M0 0 C0.66 0.33 1.32 0.66 2 1 C1.01 1 0.02 1 -1 1 C-0.67 0.67 -0.34 0.34 0 0 Z M-3 2 C-2.34 2.33 -1.68 2.66 -1 3 C-2.32 4.32 -3.64 5.64 -5 7 C-5 4 -5 4 -3 2 Z M-8 6 C-7.34 6.33 -6.68 6.66 -6 7 C-6.99 7 -7.98 7 -9 7 C-8.67 6.67 -8.34 6.34 -8 6 Z M-11 8 C-10.34 8.33 -9.68 8.66 -9 9 C-9 9.66 -9 10.32 -9 11 C-9.99 10.67 -10.98 10.34 -12 10 C-11.67 9.34 -11.34 8.68 -11 8 Z M-14 10 C-13.34 10.33 -12.68 10.66 -12 11 C-12.66 11.66 -13.32 12.32 -14 13 C-14.66 13 -15.32 13 -16 13 C-16 12.34 -16 11.68 -16 11 C-15.34 10.67 -14.68 10.34 -14 10 Z " fill="#101010" transform="translate(772,706)"/>
<path d="M0 0 C0.66 0.33 1.32 0.66 2 1 C1.52269162 2.4589426 1.04308958 3.91713496 0.5625 5.375 C0.29566406 6.18710937 0.02882813 6.99921875 -0.24609375 7.8359375 C-1 10 -1 10 -2 12 C-2.99 11.67 -3.98 11.34 -5 11 C-3.35 7.37 -1.7 3.74 0 0 Z " fill="#111111" transform="translate(644,420)"/>
<path d="M0 0 C0.66 0 1.32 0 2 0 C3.35439668 2.70879335 3.06501451 5.00933268 3 8 C2.01 7.67 1.02 7.34 0 7 C0 4.69 0 2.38 0 0 Z " fill="#101010" transform="translate(555,587)"/>
</svg>
