<?xml version="1.0" encoding="UTF-8"?>
<svg version="1.1" xmlns="http://www.w3.org/2000/svg" width="1024" height="1024">
<path d="M0 0 C3.53012723 1.47126109 6.77009786 3.31161606 10.0625 5.25 C12.02091293 6.36153166 13.98058911 7.47084003 15.94140625 8.578125 C17.44405029 9.43374023 17.44405029 9.43374023 18.97705078 10.30664062 C23.75914258 12.98541536 28.62750052 15.49065446 33.5 18 C40.81846117 21.79162486 48.08889993 25.65571343 55.3125 29.625 C64.03567551 34.4135486 72.80558182 39.1092034 81.59988403 43.76541138 C83.80250301 44.9322043 86.00369899 46.10165075 88.20483398 47.27124023 C94.96571656 50.85688539 101.74185565 54.39582134 108.59765625 57.796875 C109.74967529 58.37445557 110.90169434 58.95203613 112.08862305 59.54711914 C114.21319151 60.60758831 116.34577505 61.65221411 118.48754883 62.67749023 C124.41611173 65.64964798 127.61852908 67.70041073 130 74 C131.13577247 81.54617944 131.11321427 88.99139738 131.0534668 96.61035156 C131.04658368 97.96315302 131.04013633 99.31595676 131.03408813 100.66876221 C131.01629096 104.31725219 130.99172075 107.96566553 130.96532798 111.61410236 C130.94373162 114.66605432 130.92512828 117.71802193 130.90639621 120.76999259 C130.86202141 127.96812137 130.8117487 135.16619302 130.75805664 142.36425781 C130.70284496 149.78344308 130.65889011 157.20263736 130.62020558 164.62192559 C130.58646033 171.00435274 130.54513979 177.3867014 130.49788028 183.76904273 C130.46980654 187.57582002 130.44473733 191.38255793 130.4272213 195.18939972 C130.41049158 198.76493733 130.38432052 202.34028337 130.35091019 205.91570282 C130.33517807 207.85049792 130.3291475 209.78536429 130.32341003 211.72021484 C130.30449707 213.45274506 130.30449707 213.45274506 130.28520203 215.22027588 C130.27837245 216.221637 130.27154287 217.22299812 130.26450634 218.25470352 C129.92334782 221.79556873 129.23234169 224.89290871 126.52270508 227.32714844 C125.92353271 227.6677832 125.32436035 228.00841797 124.70703125 228.359375 C123.99369629 228.77123047 123.28036133 229.18308594 122.54541016 229.60742188 C121.7054248 230.06697266 120.86543945 230.52652344 120 231 C118.99630371 231.55751953 117.99260742 232.11503906 116.95849609 232.68945312 C113.54643365 234.56525991 110.11950106 236.41095107 106.6875 238.25 C105.49664274 238.89304021 104.30588682 239.53626813 103.11523438 240.1796875 C94.38541667 244.87152778 94.38541667 244.87152778 91 246 C90.67 246.66 90.34 247.32 90 248 C87.87194868 249.15230726 85.74636717 250.21263621 83.5625 251.25 C63.64849078 260.95981215 44.30775864 271.91454782 24.95703125 282.6953125 C22.31792791 284.15660119 19.66295323 285.58262167 17 287 C15.98292969 287.55397461 15.98292969 287.55397461 14.9453125 288.11914062 C12.59847075 289.39068031 10.23830841 290.6343714 7.875 291.875 C7.13427246 292.28121582 6.39354492 292.68743164 5.63037109 293.10595703 C0.35720105 295.82853673 -4.09950341 297.39639254 -10 296 C-15.2676944 293.77495902 -20.20315646 291.04146798 -25.1875 288.25 C-26.62551875 287.4627063 -28.0644948 286.67715877 -29.50439453 285.89331055 C-33.04563245 283.9608359 -36.57556053 282.00871462 -40.1026001 280.05047607 C-43.64956937 278.08673277 -47.21530062 276.15758083 -50.77856445 274.22363281 C-53.3843421 272.80742267 -55.98549474 271.38300996 -58.5859375 269.95703125 C-65.79428489 266.01100188 -73.0364044 262.12767891 -80.27685547 258.2409668 C-85.68779377 255.33334856 -91.08835143 252.40911914 -96.46875 249.4453125 C-97.99435547 248.60613281 -97.99435547 248.60613281 -99.55078125 247.75 C-101.4772626 246.68852153 -103.4018332 245.62356577 -105.32421875 244.5546875 C-106.17628906 244.08546875 -107.02835937 243.61625 -107.90625 243.1328125 C-109.02483398 242.51237061 -109.02483398 242.51237061 -110.16601562 241.87939453 C-111.96157957 240.85587859 -111.96157957 240.85587859 -114 241 C-114 240.34 -114 239.68 -114 239 C-114.98806641 238.63648438 -114.98806641 238.63648438 -115.99609375 238.265625 C-119.82232111 236.65353441 -123.42401389 234.74433061 -127.0625 232.75 C-127.76955078 232.38003906 -128.47660156 232.01007813 -129.20507812 231.62890625 C-129.89150391 231.25121094 -130.57792969 230.87351562 -131.28515625 230.484375 C-131.90269775 230.15147461 -132.52023926 229.81857422 -133.15649414 229.47558594 C-136.95379471 226.43613624 -138.75173155 223.90351278 -139.38175106 219.07305527 C-139.54353847 215.26102379 -139.57572694 211.4588999 -139.56518555 207.64453125 C-139.57552475 206.17555543 -139.58751536 204.70659044 -139.60102844 203.23764038 C-139.63202137 199.25829547 -139.63735406 195.27931303 -139.63609672 191.29986191 C-139.63692826 187.97472308 -139.64917831 184.64966248 -139.66104633 181.32454777 C-139.68840021 173.47966144 -139.69375412 165.63496299 -139.6862793 157.79003906 C-139.67903355 149.70196597 -139.71248231 141.61476351 -139.76533669 133.52687931 C-139.80911595 126.57635509 -139.82583373 119.62611225 -139.8213008 112.67545223 C-139.81897921 108.52681485 -139.82728612 104.37888162 -139.86237144 100.2303772 C-139.89433222 96.32947762 -139.89251661 92.43002116 -139.86492729 88.52910233 C-139.86047316 87.09965236 -139.86791517 85.6701071 -139.88827133 84.24079514 C-140.03112598 73.47940699 -140.03112598 73.47940699 -137.50744534 69.85855865 C-135.73645159 68.29744841 -134.06423276 67.13560454 -132 66 C-131.07556611 65.43786804 -131.07556611 65.43786804 -130.13245678 64.86437988 C-128.38570329 63.82238338 -126.60527406 62.89170205 -124.79296875 61.96875 C-124.11929764 61.61598999 -123.44562653 61.26322998 -122.75154114 60.89978027 C-120.56771308 59.75827463 -118.3776675 58.6292865 -116.1875 57.5 C-114.6485355 56.6976745 -113.11013035 55.89427525 -111.57226562 55.08984375 C-109.24572955 53.87299061 -106.9189062 52.65673829 -104.59030151 51.44384766 C-98.02617146 48.02422417 -91.50713072 44.52701576 -85 41 C-73.68024477 34.88203315 -62.31898869 28.84406629 -50.93212891 22.85205078 C-44.44630178 19.43572012 -37.97298005 16.00331138 -31.55480957 12.46109009 C-28.81625691 10.94970409 -26.0716658 9.44945451 -23.32702637 7.94915771 C-22.04118414 7.24158666 -20.75860126 6.52805489 -19.47961426 5.8081665 C-6.75802016 -1.35021206 -6.75802016 -1.35021206 0 0 Z M-13.2578125 27.0859375 C-14.17015152 27.57865646 -14.17015152 27.57865646 -15.10092163 28.08132935 C-16.42101527 28.79545862 -17.73861139 29.51421976 -19.05395508 30.23706055 C-22.62108714 32.19702784 -26.20626408 34.12355532 -29.7890625 36.0546875 C-30.53726257 36.459151 -31.28546265 36.8636145 -32.05633545 37.28033447 C-41.18064923 42.20059054 -50.41737596 46.90213029 -59.65924072 51.59686279 C-68.02666247 55.84868312 -76.30292038 60.20877785 -84.44787598 64.87548828 C-90.83127232 68.52374474 -97.38812617 71.78704256 -104 75 C-104 76.65 -104 78.3 -104 80 C-92.71034887 86.38737605 -81.3016126 92.50441796 -69.76977539 98.4440918 C-68.76164795 98.96398682 -67.75352051 99.48388184 -66.71484375 100.01953125 C-65.74659668 100.51662598 -64.77834961 101.0137207 -63.78076172 101.52587891 C-60.42631981 103.30411598 -57.1714609 105.22962948 -53.93969727 107.22143555 C-51.5539984 108.17901814 -50.37863899 107.853947 -48 107 C-48 107.99 -48 108.98 -48 110 C-45.35261084 111.4606285 -44.10551666 112 -41 112 C-42.90342226 104.75363807 -45.64177814 98.07461831 -48.79296875 91.296875 C-50.05190564 87.85822538 -50.55359178 85.61885 -50 82 C-48.41015625 80.3828125 -48.41015625 80.3828125 -46.0625 79.125 C-44.71671875 78.39023437 -44.71671875 78.39023437 -43.34375 77.640625 C-40.79275206 76.38896713 -38.23624793 75.1735928 -35.65625 73.984375 C-34.89948975 73.63487793 -34.14272949 73.28538086 -33.36303711 72.92529297 C-31.84896503 72.23405471 -30.32898193 71.55559667 -28.80297852 70.89111328 C-23.95583797 68.7163338 -21.25883588 66.96525785 -19.12109375 61.9296875 C-18.89550781 61.25164062 -18.66992188 60.57359375 -18.4375 59.875 C-17.5305555 57.15929047 -17.07808677 56.07808677 -15 54 C-11.76953125 53.515625 -11.76953125 53.515625 -7.8125 53.25 C-5.87310547 53.10304688 -5.87310547 53.10304688 -3.89453125 52.953125 C0.22523045 53.0027109 3.21774371 53.3493894 7 55 C8.21484375 57.5390625 8.21484375 57.5390625 8.9375 60.625 C10.81291538 65.83379487 12.72969931 67.94797502 17.50366211 70.39746094 C20.31500957 71.69296505 23.14295919 72.93679801 25.99804688 74.1328125 C28.88283547 75.38241849 31.62208948 76.86017093 34.375 78.375 C35.22835937 78.83648437 36.08171875 79.29796875 36.9609375 79.7734375 C39 81 39 81 41 83 C40.09407167 89.68122145 37.68794874 95.57089618 34.9453125 101.68237305 C33.29272102 105.53019048 32.67115246 107.97505137 34 112 C44.79177226 107.05580569 55.32828756 101.83166755 65.69042969 96.03808594 C74.08785344 91.35446173 82.63351567 86.92146238 91.375 82.91015625 C93.18632585 82.09553371 93.18632585 82.09553371 94 80 C96.0625 78.875 96.0625 78.875 98 78 C95.32148387 74.85733667 91.91873676 73.18023881 88.3125 71.3125 C87.66273193 70.97089844 87.01296387 70.62929688 86.34350586 70.27734375 C78.95020422 66.41091951 71.47975095 62.69564567 64 59 C64 59.66 64 60.32 64 61 C63.34 61 62.68 61 62 61 C62.33 60.01 62.66 59.02 63 58 C62.22100342 57.59797363 61.44200684 57.19594727 60.6394043 56.78173828 C34.58798043 43.33299527 34.58798043 43.33299527 23.75 37.625 C22.64217163 37.04347168 22.64217163 37.04347168 21.51196289 36.45019531 C17.7364887 34.46341353 13.9806 32.44637118 10.2421875 30.390625 C9.07864746 29.75713135 9.07864746 29.75713135 7.89160156 29.11083984 C6.4277694 28.31270128 4.96840327 27.50629101 3.51464844 26.68994141 C-3.27594626 23.00261156 -6.57030716 23.42483679 -13.2578125 27.0859375 Z M-106 76 C-106 79 -106 79 -106 79 Z M-118 97 C-118.02717692 99.06242617 -118.0464758 101.12495703 -118.0625 103.1875 C-118.07410156 104.33605469 -118.08570313 105.48460937 -118.09765625 106.66796875 C-118.15715034 111.71023864 -118.15715034 111.71023864 -116 116 C-116.33 116 -116.66 116 -117 116 C-118.02899294 125.11424121 -117.93531596 133.97410288 -117.5 143.125 C-117.38061998 145.7107205 -117.26578761 148.29665635 -117.15625 150.8828125 C-117.10275391 152.01090332 -117.04925781 153.13899414 -116.99414062 154.30126953 C-117 157 -117 157 -118 159 C-118.09481475 160.50503891 -118.12794406 162.01419496 -118.12939453 163.5222168 C-118.13254669 164.46046799 -118.13569885 165.39871918 -118.13894653 166.36540222 C-118.1369223 167.38306168 -118.13489807 168.40072113 -118.1328125 169.44921875 C-118.13376923 170.4951973 -118.13472595 171.54117584 -118.13571167 172.61885071 C-118.1363933 174.83729106 -118.13454018 177.05573339 -118.13037109 179.27416992 C-118.12504936 182.65613349 -118.13030277 186.03796261 -118.13671875 189.41992188 C-118.13605744 191.57552113 -118.13477519 193.73112029 -118.1328125 195.88671875 C-118.13483673 196.89425705 -118.13686096 197.90179535 -118.13894653 198.93986511 C-118.12824301 206.52624296 -118.12824301 206.52624296 -117 214 C-114.69550486 215.63315762 -112.93615722 216.57622488 -110.375 217.625 C-108.91751754 218.28496021 -107.46327346 218.95210217 -106.01171875 219.625 C-104.81554932 220.17607422 -104.81554932 220.17607422 -103.59521484 220.73828125 C-98.66606668 223.1346912 -93.93974485 225.89893603 -89.1875 228.625 C-78.95036129 234.4805522 -68.64401084 240.17038561 -58.1875 245.625 C-48.03851193 250.93985115 -37.98741162 256.43050142 -27.94506836 261.94360352 C-26.64191165 262.65136793 -25.32639297 263.33680352 -24 264 C-22.21548356 265.04798253 -20.43446553 266.10151523 -18.65625 267.16015625 C-17.01220612 268.15075163 -17.01220612 268.15075163 -15 268 C-15 253.48 -15 238.96 -15 224 C-16.485 224.495 -16.485 224.495 -18 225 C-19.6758838 224.71662328 -21.34117617 224.37039491 -23 224 C-25.86819148 223.5488319 -28.74488396 223.1786581 -31.625 222.8125 C-32.7696875 222.65104492 -32.7696875 222.65104492 -33.9375 222.48632812 C-38.74128057 221.83075381 -38.74128057 221.83075381 -43 224 C-43 223.34 -43 222.68 -43 222 C-42.34 221.67 -41.68 221.34 -41 221 C-41.639375 220.608125 -42.27875 220.21625 -42.9375 219.8125 C-45.5372518 217.52786963 -45.5343739 216.38450297 -46 213 C-46.22268572 208.48153827 -46.18514773 203.96091748 -46.1875 199.4375 C-46.19974609 198.22513672 -46.21199219 197.01277344 -46.22460938 195.76367188 C-46.24487199 183.16707963 -44.61720731 173.11913586 -39 161.8125 C-35.76419689 155.21608423 -33.30423789 149.25482324 -32 142 C-38.48361845 137.79462052 -45.18852728 134.21145595 -52.0625 130.6875 C-54.30241458 129.53189183 -56.5419995 128.37564444 -58.78125 127.21875 C-59.85503906 126.66445313 -60.92882812 126.11015625 -62.03515625 125.5390625 C-65.72905196 123.62154615 -69.39942946 121.66307723 -73.0625 119.6875 C-78.97880856 116.50959712 -84.96145572 113.48514108 -90.98852539 110.52416992 C-95.89829688 108.10170312 -95.89829688 108.10170312 -97 107 C-99.73345778 105.43210486 -102.52929826 103.97736099 -105.3125 102.5 C-106.08529297 102.08363281 -106.85808594 101.66726563 -107.65429688 101.23828125 C-108.40388672 100.83996094 -109.15347656 100.44164062 -109.92578125 100.03125 C-110.61067627 99.66580078 -111.29557129 99.30035156 -112.0012207 98.92382812 C-113.98906909 98.00505222 -115.8630528 97.45674295 -118 97 Z M99.6875 100.0625 C91.72903076 104.51544336 83.72378849 108.87664326 75.6875 113.1875 C75.10298065 113.50105438 74.5184613 113.81460876 73.91622925 114.13766479 C66.98329173 117.85239367 60.02727061 121.51891107 53.03515625 125.12109375 C52.38073044 125.45833969 51.72630463 125.79558563 51.05204773 126.14305115 C47.90204807 127.76466077 44.74935379 129.38073142 41.5925293 130.98901367 C38.38128549 132.63449506 35.19073325 134.31523324 32 136 C30.71319336 136.62213379 30.71319336 136.62213379 29.40039062 137.25683594 C27.3025525 138.36091288 25.6513563 139.30135817 24 141 C22.74164303 147.43903939 24.9509895 152.12809547 27.75 157.875 C29.18032797 160.9104738 30.59597847 163.95227169 32 167 C32.35320312 167.75325562 32.70640625 168.50651123 33.0703125 169.28259277 C35.76213045 175.4267811 36.54938302 180.49630305 36.390625 187.1640625 C36.38496521 188.08214691 36.37930542 189.00023132 36.37347412 189.94613647 C36.35132475 192.8396523 36.30117171 195.73186711 36.25 198.625 C36.22990718 200.60284653 36.21166133 202.58071273 36.1953125 204.55859375 C36.15153075 209.37288678 36.08265631 214.18622389 36 219 C34.43840941 219.48212214 32.87568072 219.96055873 31.3125 220.4375 C30.44238281 220.70433594 29.57226562 220.97117187 28.67578125 221.24609375 C23.52746505 222.69664123 18.51451699 223.25154494 13.1875 223.5625 C12.49462891 223.60568359 11.80175781 223.64886719 11.08789062 223.69335938 C9.39211314 223.79861453 7.69607948 223.89972863 6 224 C4.93933264 238.75143531 5.15721878 253.23890664 6 268 C15.10008818 263.55632058 24.02972912 258.94255015 32.7890625 253.859375 C38.74150567 250.41246143 44.78826591 247.1492758 50.88671875 243.96875 C62.18474422 238.07242297 73.36508662 231.97816541 84.50927734 225.79736328 C85.09778473 225.47255981 85.68629211 225.14775635 86.29263306 224.81311035 C88.04333648 223.83835129 89.78104027 222.84036399 91.51855469 221.84228516 C95 220 95 220 98.73925781 218.62255859 C102.56828333 217.1006593 105.00725543 215.84057605 108 213 C108.61481805 209.98215123 108.85024631 207.6618903 108.84887695 204.63647461 C108.86994475 203.80202631 108.89101255 202.96757801 108.91271877 202.1078434 C108.97179382 199.40477314 108.98876207 196.7036603 109 194 C109.02169168 192.22532791 109.04409084 190.45066433 109.06719971 188.67601013 C109.1248544 182.98950431 109.11298066 177.30388561 109.09765625 171.6171875 C109.09578503 169.53923578 109.09436446 167.46128362 109.09336853 165.3833313 C109.08959745 159.98181891 109.07981596 154.58033453 109.06866455 149.17883301 C109.05833716 143.64396543 109.05384567 138.10909323 109.04882812 132.57421875 C109.03814737 121.71613339 109.02051818 110.8580706 109 100 C109 99.67 109 99.34 109 99 C108.505 97.515 108.505 97.515 108 96 C105.33890432 96 102.02845203 98.74081052 99.6875 100.0625 Z " fill="#5BADFA" transform="translate(516,322)"/>
<path d="M0 0 C0.66 0 1.32 0 2 0 C2.15617511 7.8168069 2.30427113 15.63372567 2.4429636 23.45086002 C2.50764798 27.08345293 2.57477947 30.71596087 2.64819336 34.34838867 C3.06228313 54.95943503 3.21675685 75.47283498 1 96 C0.67 96 0.34 96 0 96 C-0.77867232 82.57224771 -1.08980268 69.17746645 -1.0625 55.73046875 C-1.06105988 54.97937962 -1.05961975 54.22829048 -1.05813599 53.45444107 C-1.04591407 48.03209514 -1.02379923 42.60980555 -1 37.1875 C-0.97628186 31.68991325 -0.95605122 26.19235269 -0.94406128 20.69472694 C-0.93760343 18.51537336 -0.92512308 16.33610845 -0.91235352 14.15678406 C-0.90905029 12.84974014 -0.90574707 11.54269623 -0.90234375 10.19604492 C-0.89710693 9.04408127 -0.89187012 7.89211761 -0.88647461 6.70524597 C-0.81381105 4.03127892 -0.81381105 4.03127892 -2 2 C-1.34 2 -0.68 2 0 2 C0 1.34 0 0.68 0 0 Z " fill="#52A9F8" transform="translate(625,419)"/>
<path d="M0 0 C2.03120707 3.04681061 2.24659875 3.60118324 2.1953125 7.01171875 C2.18886719 7.76904297 2.18242187 8.52636719 2.17578125 9.30664062 C2.15902344 10.09232422 2.14226562 10.87800781 2.125 11.6875 C2.11597656 12.48478516 2.10695313 13.28207031 2.09765625 14.10351562 C2.07411585 16.069139 2.03824547 18.03460775 2 20 C2.66 20 3.32 20 4 20 C3.67 20.66 3.34 21.32 3 22 C1.6044719 30.69663535 2.05702098 39.42773591 2.4375 48.1875 C2.49088589 49.53447954 2.54362425 50.88148491 2.59570312 52.22851562 C2.7241339 55.48598722 2.85903283 58.74305095 3 62 C2.01 62.495 2.01 62.495 1 63 C0.14546567 59.30423095 -0.12178203 55.8979539 -0.11352539 52.1081543 C-0.11344986 50.94732834 -0.11337433 49.78650238 -0.11329651 48.59049988 C-0.10813522 47.34762711 -0.10297394 46.10475433 -0.09765625 44.82421875 C-0.0962413 43.54392288 -0.09482635 42.26362701 -0.09336853 40.9445343 C-0.08956397 37.5530296 -0.07975143 34.16156823 -0.06866455 30.77008057 C-0.05840597 27.30440863 -0.05386141 23.83872964 -0.04882812 20.37304688 C-0.03780755 13.58201252 -0.0210757 6.79101019 0 0 Z " fill="#97CEFB" transform="translate(397,417)"/>
<path d="M0 0 C0.33 0 0.66 0 1 0 C1.54984836 12.84978069 2.09646511 25.69920754 2.125 38.5625 C2.13176758 39.78005981 2.13176758 39.78005981 2.13867188 41.0222168 C2.12448285 46.72915969 1.65467101 52.33239827 1 58 C0.67 58 0.34 58 0 58 C-1.29479403 38.61792933 -0.73296967 19.38796204 0 0 Z " fill="#3899F0" transform="translate(625,457)"/>
<path d="M0 0 C0.33 0 0.66 0 1 0 C1 12.87 1 25.74 1 39 C0.01 39.495 0.01 39.495 -1 40 C-2.35700647 37.28598706 -2.1123861 35.15153684 -2.09765625 32.1171875 C-2.09443359 30.95058594 -2.09121094 29.78398438 -2.08789062 28.58203125 C-2.07951172 27.35871094 -2.07113281 26.13539063 -2.0625 24.875 C-2.05798828 23.64394531 -2.05347656 22.41289062 -2.04882812 21.14453125 C-2.0370133 18.09630608 -2.02054028 15.04817686 -2 12 C-1.67 12 -1.34 12 -1 12 C-0.67 8.04 -0.34 4.08 0 0 Z " fill="#9BD0FD" transform="translate(398,487)"/>
<path d="M0 0 C4.95 2.31 9.9 4.62 15 7 C15 7.99 15 8.98 15 10 C8.83643195 8.3341708 3.51740344 5.12194714 -2 2 C-1.34 1.34 -0.68 0.68 0 0 Z " fill="#6CB5FB" transform="translate(522,348)"/>
<path d="M0 0 C0.66 0.33 1.32 0.66 2 1 C-1.2065471 5.80982065 -5.94242901 7.55909193 -11.5 8.75 C-12.7375 8.87375 -12.7375 8.87375 -14 9 C-11.50175511 6.18841591 -8.721524 4.55162169 -5.4375 2.75 C-4.46683594 2.20859375 -3.49617188 1.6671875 -2.49609375 1.109375 C-1.67238281 0.74328125 -0.84867187 0.3771875 0 0 Z " fill="#6EB6FA" transform="translate(395,382)"/>
<path d="M0 0 C1.20462891 0.53367187 1.20462891 0.53367187 2.43359375 1.078125 C3.64208984 1.59632813 3.64208984 1.59632813 4.875 2.125 C6.87109375 3.328125 6.87109375 3.328125 7.87109375 6.328125 C6.96359375 6.01875 6.05609375 5.709375 5.12109375 5.390625 C2.70546037 4.6008987 0.3432909 3.89863203 -2.12890625 3.328125 C-2.12890625 2.668125 -2.12890625 2.008125 -2.12890625 1.328125 C-2.78890625 0.998125 -3.44890625 0.668125 -4.12890625 0.328125 C-2.12890625 -0.671875 -2.12890625 -0.671875 0 0 Z " fill="#71BBFC" transform="translate(451.12890625,443.671875)"/>
<path d="M0 0 C0.33 0 0.66 0 1 0 C1 5.94 1 11.88 1 18 C0.67 16.68 0.34 15.36 0 14 C-0.66 13.67 -1.32 13.34 -2 13 C-1.34 8.71 -0.68 4.42 0 0 Z " fill="#66B4FB" transform="translate(626,505)"/>
<path d="M0 0 C0.33 0.66 0.66 1.32 1 2 C-0.093125 1.95875 -1.18625 1.9175 -2.3125 1.875 C-6.08892229 1.67925334 -6.08892229 1.67925334 -9 4 C-11.6875 4.125 -11.6875 4.125 -14 4 C-8.89306527 0.08468337 -6.36484364 -0.10265877 0 0 Z " fill="#82BAF7" transform="translate(516,322)"/>
<path d="M0 0 C0.66 0.33 1.32 0.66 2 1 C-0.51830747 4.12270126 -1.7261549 4.94523098 -5.75 5.75 C-7.35875 5.87375 -7.35875 5.87375 -9 6 C-6.12050853 3.76039553 -3.23257974 1.70135776 0 0 Z " fill="#69B6FB" transform="translate(587,414)"/>
<path d="M0 0 C4.56454251 0.54339792 7.9728176 1.79463821 12 4 C12 4.33 12 4.66 12 5 C6.71201818 4.58525633 3.88309282 3.64775386 0 0 Z " fill="#6CB8FA" transform="translate(566,351)"/>
<path d="M0 0 C0.66 0.33 1.32 0.66 2 1 C2 1.66 2 2.32 2 3 C-0.25 4.75 -0.25 4.75 -3 6 C-5.3125 5.1875 -5.3125 5.1875 -7 4 C-1.7265625 0.77734375 -1.7265625 0.77734375 0 0 Z " fill="#6FB6FA" transform="translate(468,343)"/>
<path d="M0 0 C2.9719385 1.12451727 5.33440687 2.22293791 8 4 C8 4.66 8 5.32 8 6 C2.33846154 4.52307692 2.33846154 4.52307692 0.625 1.875 C0.41875 1.25625 0.2125 0.6375 0 0 Z " fill="#70B7F9" transform="translate(442,581)"/>
<path d="M0 0 C0.66 0.33 1.32 0.66 2 1 C1.34 4.3 0.68 7.6 0 11 C-2.30163882 7.54754176 -2.34490322 6.05261287 -2 2 C-1.34 1.34 -0.68 0.68 0 0 Z " fill="#70B8FA" transform="translate(467,402)"/>
<path d="M0 0 C0 0.66 0 1.32 0 2 C-0.99 2 -1.98 2 -3 2 C-3 2.66 -3 3.32 -3 4 C-4.65 4.66 -6.3 5.32 -8 6 C-8.66 5.34 -9.32 4.68 -10 4 C-8.71086513 3.32845067 -7.41859796 2.66291141 -6.125 2 C-5.40570313 1.62875 -4.68640625 1.2575 -3.9453125 0.875 C-2 0 -2 0 0 0 Z " fill="#67B4FB" transform="translate(418,371)"/>
<path d="M0 0 C3.3 1.65 6.6 3.3 10 5 C9.01 5.495 9.01 5.495 8 6 C4.4375 4.75 4.4375 4.75 1 3 C0.67 2.01 0.34 1.02 0 0 Z " fill="#6DB6F9" transform="translate(520,325)"/>
<path d="M0 0 C0.66 0.33 1.32 0.66 2 1 C1.54625 1.433125 1.0925 1.86625 0.625 2.3125 C-1.20024334 4.10798342 -1.20024334 4.10798342 -3 7 C-3 6.34 -3 5.68 -3 5 C-4.32 4.67 -5.64 4.34 -7 4 C-1.7265625 0.77734375 -1.7265625 0.77734375 0 0 Z " fill="#68B3FA" transform="translate(596,549)"/>
<path d="M0 0 C0 2.31 0 4.62 0 7 C-0.99 7 -1.98 7 -3 7 C-3.6875 5.1875 -3.6875 5.1875 -4 3 C-1.64285714 0 -1.64285714 0 0 0 Z " fill="#6BB6FC" transform="translate(645,540)"/>
<path d="M0 0 C2.4375 1.25 2.4375 1.25 3.4375 4.25 C-2.3125 2.5 -2.3125 2.5 -4.5625 0.25 C-2.5625 -0.75 -2.5625 -0.75 0 0 Z " fill="#77BCFC" transform="translate(415.5625,424.75)"/>
<path d="M0 0 C0.556875 0.226875 1.11375 0.45375 1.6875 0.6875 C-5.0625 4.6875 -5.0625 4.6875 -7.3125 4.6875 C-7.3125 4.0275 -7.3125 3.3675 -7.3125 2.6875 C-3.15982824 -0.42700382 -3.15982824 -0.42700382 0 0 Z " fill="#70B8FA" transform="translate(534.3125,606.3125)"/>
<path d="M0 0 C3.35595828 0.59927826 5.37801226 1.84622436 8 4 C6.35 4.33 4.7 4.66 3 5 C3 4.34 3 3.68 3 3 C2.01 2.67 1.02 2.34 0 2 C0 1.34 0 0.68 0 0 Z " fill="#68B5FB" transform="translate(438,557)"/>
<path d="M0 0 C2.64 0.33 5.28 0.66 8 1 C8 1.99 8 2.98 8 4 C5.69 3.67 3.38 3.34 1 3 C0.67 2.01 0.34 1.02 0 0 Z " fill="#7CBFFC" transform="translate(460,428)"/>
<path d="M0 0 C4.21912747 0.4794463 6.79663178 1.16625119 10 4 C9.01 4.33 8.02 4.66 7 5 C6.34 4.67 5.68 4.34 5 4 C5 3.34 5 2.68 5 2 C3.35 1.67 1.7 1.34 0 1 C0 0.67 0 0.34 0 0 Z " fill="#6AB6FC" transform="translate(441,419)"/>
<path d="M0 0 C-0.33 0.99 -0.66 1.98 -1 3 C-4.0625 4.1875 -4.0625 4.1875 -7 5 C-6 2 -6 2 -4.0625 0.8125 C-2 0 -2 0 0 0 Z " fill="#68B5FB" transform="translate(490,355)"/>
<path d="M0 0 C1.485 0.99 1.485 0.99 3 2 C2.01 2 1.02 2 0 2 C0 1.34 0 0.68 0 0 Z " fill="#FFFFFF" transform="translate(412,568)"/>
<path d="M0 0 C1 4 1 4 1 4 Z " fill="#FFFFFF" transform="translate(467,518)"/>
<path d="M0 0 C4 1 4 1 4 1 Z " fill="#FFFFFF" transform="translate(517,373)"/>
<path d="M0 0 C0.66 0.66 1.32 1.32 2 2 C1.34 2 0.68 2 0 2 C0 1.34 0 0.68 0 0 Z " fill="#FFFFFF" transform="translate(466,597)"/>
<path d="M0 0 C0.33 0.66 0.66 1.32 1 2 C0.34 1.67 -0.32 1.34 -1 1 C-0.67 0.67 -0.34 0.34 0 0 Z " fill="#FFFFFF" transform="translate(410,567)"/>
<path d="" fill="#FFFFFF" transform="translate(0,0)"/>
<path d="" fill="#FFFFFF" transform="translate(0,0)"/>
<path d="M0 0 C3 1 3 1 3 1 Z " fill="#FFFFFF" transform="translate(510,373)"/>
<path d="M0 0 C2 1 2 1 2 1 Z " fill="#FFFFFF" transform="translate(502,617)"/>
<path d="" fill="#FFFFFF" transform="translate(0,0)"/>
<path d="M0 0 C2 1 2 1 2 1 Z " fill="#FFFFFF" transform="translate(481,606)"/>
<path d="M0 0 C2 1 2 1 2 1 Z " fill="#FFFFFF" transform="translate(434,580)"/>
<path d="M0 0 C2 1 2 1 2 1 Z " fill="#FFFFFF" transform="translate(428,577)"/>
<path d="" fill="#FFFFFF" transform="translate(0,0)"/>
<path d="M0 0 C2 1 2 1 2 1 Z " fill="#FFFFFF" transform="translate(393,558)"/>
<path d="M0 0 C2 1 2 1 2 1 Z " fill="#FFFFFF" transform="translate(634,554)"/>
<path d="" fill="#FFFFFF" transform="translate(0,0)"/>
<path d="M0 0 C2 1 2 1 2 1 Z " fill="#EAEAFF" transform="translate(537,546)"/>
<path d="" fill="#FFFFFF" transform="translate(0,0)"/>
<path d="" fill="#FFFFFF" transform="translate(0,0)"/>
<path d="" fill="#FFFFFF" transform="translate(0,0)"/>
<path d="" fill="#FFFFFF" transform="translate(0,0)"/>
<path d="" fill="#FFFFFF" transform="translate(0,0)"/>
<path d="" fill="#FFFFFF" transform="translate(0,0)"/>
<path d="" fill="#FFFFFF" transform="translate(0,0)"/>
<path d="" fill="#FFFFFF" transform="translate(0,0)"/>
<path d="" fill="#FFFFFF" transform="translate(0,0)"/>
<path d="" fill="#FFFFFF" transform="translate(0,0)"/>
<path d="" fill="#FFFFFF" transform="translate(0,0)"/>
<path d="" fill="#FFFFFF" transform="translate(0,0)"/>
<path d="" fill="#FFFFFF" transform="translate(0,0)"/>
<path d="M0 0 C2 1 2 1 2 1 Z " fill="#FFFFFF" transform="translate(622,426)"/>
<path d="M0 0 C2 1 2 1 2 1 Z " fill="#FFFFFF" transform="translate(558,404)"/>
<path d="M0 0 C2 1 2 1 2 1 Z " fill="#FFFFFF" transform="translate(610,400)"/>
<path d="" fill="#FFFFFF" transform="translate(0,0)"/>
<path d="M0 0 C2 1 2 1 2 1 Z " fill="#FFFFFF" transform="translate(522,371)"/>
<path d="M0 0 C2 1 2 1 2 1 Z " fill="#FFFFFF" transform="translate(550,370)"/>
<path d="M0 0 C2 1 2 1 2 1 Z " fill="#FFFFFF" transform="translate(537,360)"/>
<path d="M0 0 C2 1 2 1 2 1 Z " fill="#FFFFFF" transform="translate(442,355)"/>
<path d="" fill="#FFFFFF" transform="translate(0,0)"/>
<path d="M0 0 C2 1 2 1 2 1 Z " fill="#FFFFFF" transform="translate(466,339)"/>
<path d="M0 0 C2 1 2 1 2 1 Z " fill="#FFFFFF" transform="translate(500,324)"/>
<path d="M0 0 C2 1 2 1 2 1 Z " fill="#FFFFFF" transform="translate(502,323)"/>
<path d="" fill="#FFFFFF" transform="translate(0,0)"/>
<path d="" fill="#FFFFFF" transform="translate(0,0)"/>
<path d="" fill="#FFFFFF" transform="translate(0,0)"/>
<path d="" fill="#FFFFFF" transform="translate(0,0)"/>
<path d="" fill="#FFFFFF" transform="translate(0,0)"/>
<path d="" fill="#FFFFFF" transform="translate(0,0)"/>
<path d="" fill="#FFFFFF" transform="translate(0,0)"/>
<path d="" fill="#FFFFFF" transform="translate(0,0)"/>
<path d="" fill="#FFFFFF" transform="translate(0,0)"/>
<path d="" fill="#FFFFFF" transform="translate(0,0)"/>
<path d="" fill="#FFFFFF" transform="translate(0,0)"/>
<path d="" fill="#FFFFFF" transform="translate(0,0)"/>
<path d="" fill="#FFFFFF" transform="translate(0,0)"/>
<path d="" fill="#FFFFFF" transform="translate(0,0)"/>
<path d="" fill="#FFFFFF" transform="translate(0,0)"/>
<path d="" fill="#FFFFFF" transform="translate(0,0)"/>
<path d="" fill="#FFFFFF" transform="translate(0,0)"/>
<path d="" fill="#FFFFFF" transform="translate(0,0)"/>
<path d="" fill="#FFFFFF" transform="translate(0,0)"/>
<path d="" fill="#FFFFFF" transform="translate(0,0)"/>
<path d="" fill="#FFFFFF" transform="translate(0,0)"/>
<path d="" fill="#FFFFFF" transform="translate(0,0)"/>
<path d="" fill="#D5D5FF" transform="translate(0,0)"/>
<path d="" fill="#FFFFFF" transform="translate(0,0)"/>
<path d="" fill="#FFFFFF" transform="translate(0,0)"/>
<path d="" fill="#FFFFFF" transform="translate(0,0)"/>
<path d="" fill="#FFFFFF" transform="translate(0,0)"/>
<path d="" fill="#FFFFFF" transform="translate(0,0)"/>
<path d="" fill="#FFFFFF" transform="translate(0,0)"/>
<path d="" fill="#FFFFFF" transform="translate(0,0)"/>
<path d="" fill="#FFFFFF" transform="translate(0,0)"/>
<path d="" fill="#FFFFFF" transform="translate(0,0)"/>
<path d="" fill="#FFFFFF" transform="translate(0,0)"/>
<path d="" fill="#FFFFFF" transform="translate(0,0)"/>
<path d="" fill="#FFFFFF" transform="translate(0,0)"/>
<path d="" fill="#FFFFFF" transform="translate(0,0)"/>
<path d="" fill="#FFFFFF" transform="translate(0,0)"/>
<path d="" fill="#FFFFFF" transform="translate(0,0)"/>
<path d="" fill="#FFFFFF" transform="translate(0,0)"/>
<path d="" fill="#FFFFFF" transform="translate(0,0)"/>
<path d="" fill="#FFFFFF" transform="translate(0,0)"/>
<path d="" fill="#FFFFFF" transform="translate(0,0)"/>
<path d="" fill="#FFFFFF" transform="translate(0,0)"/>
<path d="" fill="#FFFFFF" transform="translate(0,0)"/>
<path d="" fill="#FFFFFF" transform="translate(0,0)"/>
<path d="" fill="#FFFFFF" transform="translate(0,0)"/>
<path d="" fill="#FFFFFF" transform="translate(0,0)"/>
<path d="" fill="#FFFFFF" transform="translate(0,0)"/>
<path d="" fill="#FFFFFF" transform="translate(0,0)"/>
<path d="" fill="#FFFFFF" transform="translate(0,0)"/>
<path d="" fill="#FFFFFF" transform="translate(0,0)"/>
<path d="" fill="#FFFFFF" transform="translate(0,0)"/>
<path d="" fill="#FFFFFF" transform="translate(0,0)"/>
<path d="" fill="#FFFFFF" transform="translate(0,0)"/>
<path d="" fill="#FFFFFF" transform="translate(0,0)"/>
<path d="" fill="#FFFFFF" transform="translate(0,0)"/>
<path d="" fill="#FFFFFF" transform="translate(0,0)"/>
<path d="" fill="#FFFFFF" transform="translate(0,0)"/>
<path d="" fill="#FFFFFF" transform="translate(0,0)"/>
<path d="" fill="#FFFFFF" transform="translate(0,0)"/>
<path d="" fill="#FFFFFF" transform="translate(0,0)"/>
<path d="" fill="#FFFFFF" transform="translate(0,0)"/>
<path d="" fill="#FFFFFF" transform="translate(0,0)"/>
<path d="" fill="#CCFFFF" transform="translate(0,0)"/>
<path d="" fill="#FFFFFF" transform="translate(0,0)"/>
<path d="" fill="#FFFFFF" transform="translate(0,0)"/>
<path d="" fill="#FFFFFF" transform="translate(0,0)"/>
<path d="" fill="#FFFFFF" transform="translate(0,0)"/>
<path d="" fill="#FFFFFF" transform="translate(0,0)"/>
<path d="" fill="#FFFFFF" transform="translate(0,0)"/>
<path d="" fill="#FFFFFF" transform="translate(0,0)"/>
<path d="" fill="#FFFFFF" transform="translate(0,0)"/>
<path d="" fill="#FFFFFF" transform="translate(0,0)"/>
<path d="" fill="#FFFFFF" transform="translate(0,0)"/>
<path d="" fill="#FFFFFF" transform="translate(0,0)"/>
<path d="" fill="#FFFFFF" transform="translate(0,0)"/>
<path d="" fill="#FFFFFF" transform="translate(0,0)"/>
<path d="" fill="#FFFFFF" transform="translate(0,0)"/>
<path d="" fill="#FFFFFF" transform="translate(0,0)"/>
<path d="" fill="#FFFFFF" transform="translate(0,0)"/>
<path d="" fill="#FFFFFF" transform="translate(0,0)"/>
<path d="" fill="#FFFFFF" transform="translate(0,0)"/>
<path d="" fill="#FFFFFF" transform="translate(0,0)"/>
<path d="" fill="#FFFFFF" transform="translate(0,0)"/>
<path d="" fill="#FFFFFF" transform="translate(0,0)"/>
<path d="" fill="#FFFFFF" transform="translate(0,0)"/>
<path d="" fill="#FFFFFF" transform="translate(0,0)"/>
<path d="" fill="#FFFFFF" transform="translate(0,0)"/>
<path d="" fill="#FFFFFF" transform="translate(0,0)"/>
<path d="" fill="#FFFFFF" transform="translate(0,0)"/>
<path d="" fill="#FFFFFF" transform="translate(0,0)"/>
<path d="" fill="#FFFFFF" transform="translate(0,0)"/>
<path d="" fill="#FFFFFF" transform="translate(0,0)"/>
<path d="" fill="#FFFFFF" transform="translate(0,0)"/>
<path d="" fill="#FFFFFF" transform="translate(0,0)"/>
<path d="" fill="#FFFFFF" transform="translate(0,0)"/>
<path d="" fill="#FFFFFF" transform="translate(0,0)"/>
<path d="" fill="#FFFFFF" transform="translate(0,0)"/>
<path d="" fill="#FFFFFF" transform="translate(0,0)"/>
<path d="" fill="#FFFFFF" transform="translate(0,0)"/>
<path d="" fill="#FFFFFF" transform="translate(0,0)"/>
<path d="" fill="#FFFFFF" transform="translate(0,0)"/>
<path d="" fill="#FFFFFF" transform="translate(0,0)"/>
<path d="" fill="#FFFFFF" transform="translate(0,0)"/>
<path d="" fill="#FFFFFF" transform="translate(0,0)"/>
<path d="" fill="#FFFFFF" transform="translate(0,0)"/>
<path d="" fill="#FFFFFF" transform="translate(0,0)"/>
<path d="" fill="#FFFFFF" transform="translate(0,0)"/>
<path d="" fill="#FFFFFF" transform="translate(0,0)"/>
<path d="" fill="#FFFFFF" transform="translate(0,0)"/>
<path d="" fill="#FFFFFF" transform="translate(0,0)"/>
<path d="" fill="#FFFFFF" transform="translate(0,0)"/>
<path d="" fill="#FFFFFF" transform="translate(0,0)"/>
<path d="" fill="#FFFFFF" transform="translate(0,0)"/>
<path d="" fill="#FFFFFF" transform="translate(0,0)"/>
<path d="" fill="#FFFFFF" transform="translate(0,0)"/>
<path d="" fill="#FFFFFF" transform="translate(0,0)"/>
<path d="" fill="#FFFFFF" transform="translate(0,0)"/>
<path d="" fill="#FFFFFF" transform="translate(0,0)"/>
<path d="" fill="#FFFFFF" transform="translate(0,0)"/>
<path d="" fill="#FFFFFF" transform="translate(0,0)"/>
<path d="" fill="#FFFFFF" transform="translate(0,0)"/>
<path d="" fill="#FFFFFF" transform="translate(0,0)"/>
<path d="" fill="#FFFFFF" transform="translate(0,0)"/>
<path d="" fill="#FFFFFF" transform="translate(0,0)"/>
<path d="" fill="#FFFFFF" transform="translate(0,0)"/>
<path d="" fill="#FFFFFF" transform="translate(0,0)"/>
<path d="" fill="#FFFFFF" transform="translate(0,0)"/>
<path d="" fill="#FFFFFF" transform="translate(0,0)"/>
<path d="" fill="#FFFFFF" transform="translate(0,0)"/>
<path d="" fill="#FFFFFF" transform="translate(0,0)"/>
<path d="" fill="#FFFFFF" transform="translate(0,0)"/>
<path d="" fill="#FFFFFF" transform="translate(0,0)"/>
<path d="" fill="#FFFFFF" transform="translate(0,0)"/>
<path d="" fill="#FFFFFF" transform="translate(0,0)"/>
<path d="" fill="#FFFFFF" transform="translate(0,0)"/>
<path d="" fill="#FFFFFF" transform="translate(0,0)"/>
<path d="" fill="#FFFFFF" transform="translate(0,0)"/>
<path d="" fill="#FFFFFF" transform="translate(0,0)"/>
<path d="" fill="#FFFFFF" transform="translate(0,0)"/>
<path d="" fill="#FFFFFF" transform="translate(0,0)"/>
<path d="" fill="#FFFFFF" transform="translate(0,0)"/>
<path d="" fill="#FFFFFF" transform="translate(0,0)"/>
<path d="" fill="#FFFFFF" transform="translate(0,0)"/>
<path d="" fill="#FFFFFF" transform="translate(0,0)"/>
<path d="" fill="#FFFFFF" transform="translate(0,0)"/>
<path d="" fill="#FFFFFF" transform="translate(0,0)"/>
<path d="" fill="#FFFFFF" transform="translate(0,0)"/>
<path d="" fill="#FFFFFF" transform="translate(0,0)"/>
<path d="" fill="#FFFFFF" transform="translate(0,0)"/>
<path d="" fill="#FFFFFF" transform="translate(0,0)"/>
<path d="" fill="#FFFFFF" transform="translate(0,0)"/>
<path d="" fill="#FFFFFF" transform="translate(0,0)"/>
<path d="" fill="#FFFFFF" transform="translate(0,0)"/>
<path d="" fill="#FFFFFF" transform="translate(0,0)"/>
<path d="" fill="#FFFFFF" transform="translate(0,0)"/>
<path d="" fill="#FFFFFF" transform="translate(0,0)"/>
<path d="" fill="#FFFFFF" transform="translate(0,0)"/>
<path d="" fill="#FFFFFF" transform="translate(0,0)"/>
<path d="" fill="#FFFFFF" transform="translate(0,0)"/>
<path d="" fill="#FFFFFF" transform="translate(0,0)"/>
<path d="" fill="#FFFFFF" transform="translate(0,0)"/>
<path d="" fill="#FFFFFF" transform="translate(0,0)"/>
<path d="" fill="#FFFFFF" transform="translate(0,0)"/>
<path d="" fill="#FFFFFF" transform="translate(0,0)"/>
<path d="" fill="#FFFFFF" transform="translate(0,0)"/>
<path d="" fill="#FFFFFF" transform="translate(0,0)"/>
<path d="" fill="#FFFFFF" transform="translate(0,0)"/>
<path d="" fill="#FFFFFF" transform="translate(0,0)"/>
<path d="" fill="#FFFFFF" transform="translate(0,0)"/>
<path d="" fill="#FFFFFF" transform="translate(0,0)"/>
<path d="" fill="#FFFFFF" transform="translate(0,0)"/>
<path d="" fill="#FFFFFF" transform="translate(0,0)"/>
<path d="" fill="#FFFFFF" transform="translate(0,0)"/>
<path d="" fill="#FFFFFF" transform="translate(0,0)"/>
<path d="" fill="#FFFFFF" transform="translate(0,0)"/>
<path d="" fill="#FFFFFF" transform="translate(0,0)"/>
<path d="" fill="#FFFFFF" transform="translate(0,0)"/>
<path d="" fill="#FFFFFF" transform="translate(0,0)"/>
<path d="" fill="#FFFFFF" transform="translate(0,0)"/>
<path d="" fill="#FFFFFF" transform="translate(0,0)"/>
<path d="" fill="#FFFFFF" transform="translate(0,0)"/>
<path d="" fill="#FFFFFF" transform="translate(0,0)"/>
<path d="" fill="#FFFFFF" transform="translate(0,0)"/>
<path d="" fill="#FFFFFF" transform="translate(0,0)"/>
<path d="" fill="#FFFFFF" transform="translate(0,0)"/>
<path d="" fill="#FFFFFF" transform="translate(0,0)"/>
<path d="" fill="#FFFFFF" transform="translate(0,0)"/>
<path d="" fill="#FFFFFF" transform="translate(0,0)"/>
<path d="" fill="#FFFFFF" transform="translate(0,0)"/>
<path d="" fill="#FFFFFF" transform="translate(0,0)"/>
<path d="" fill="#FFFFFF" transform="translate(0,0)"/>
<path d="" fill="#FFFFFF" transform="translate(0,0)"/>
<path d="" fill="#FFFFFF" transform="translate(0,0)"/>
<path d="" fill="#FFFFFF" transform="translate(0,0)"/>
<path d="" fill="#FFFFFF" transform="translate(0,0)"/>
<path d="" fill="#FFFFFF" transform="translate(0,0)"/>
<path d="" fill="#FFFFFF" transform="translate(0,0)"/>
<path d="" fill="#FFFFFF" transform="translate(0,0)"/>
<path d="" fill="#FFFFFF" transform="translate(0,0)"/>
<path d="" fill="#FFFFFF" transform="translate(0,0)"/>
<path d="" fill="#FFFFFF" transform="translate(0,0)"/>
<path d="" fill="#FFFFFF" transform="translate(0,0)"/>
<path d="" fill="#FFFFFF" transform="translate(0,0)"/>
<path d="" fill="#FFFFFF" transform="translate(0,0)"/>
<path d="" fill="#FFFFFF" transform="translate(0,0)"/>
<path d="" fill="#FFFFFF" transform="translate(0,0)"/>
<path d="" fill="#FFFFFF" transform="translate(0,0)"/>
<path d="" fill="#FFFFFF" transform="translate(0,0)"/>
<path d="" fill="#FFFFFF" transform="translate(0,0)"/>
<path d="" fill="#FFFFFF" transform="translate(0,0)"/>
<path d="" fill="#FFFFFF" transform="translate(0,0)"/>
<path d="" fill="#FFFFFF" transform="translate(0,0)"/>
<path d="" fill="#FFFFFF" transform="translate(0,0)"/>
<path d="" fill="#FFFFFF" transform="translate(0,0)"/>
<path d="" fill="#FFFFFF" transform="translate(0,0)"/>
<path d="" fill="#FFFFFF" transform="translate(0,0)"/>
<path d="" fill="#FFFFFF" transform="translate(0,0)"/>
<path d="" fill="#FFFFFF" transform="translate(0,0)"/>
</svg>
